<svg width="174" height="46" viewBox="0 0 174 46" fill="none" xmlns="http://www.w3.org/2000/svg">
<path d="M9.919 11H8.463C8.29967 11 8.16433 10.9603 8.057 10.881C7.95433 10.797 7.87967 10.6943 7.833 10.573L7.077 8.508H2.884L2.128 10.573C2.09067 10.6803 2.016 10.7783 1.904 10.867C1.79667 10.9557 1.66367 11 1.505 11H0.042L4.018 0.877999H5.943L9.919 11ZM3.367 7.178H6.594L5.362 3.811C5.306 3.66167 5.243 3.48667 5.173 3.286C5.10767 3.08067 5.04233 2.859 4.977 2.621C4.91167 2.859 4.84633 3.08067 4.781 3.286C4.72033 3.49133 4.65967 3.671 4.599 3.825L3.367 7.178ZM23.2763 9.481C23.6403 9.481 23.9646 9.42033 24.2493 9.299C24.5386 9.17767 24.7813 9.00733 24.9773 8.788C25.178 8.56867 25.3296 8.30267 25.4323 7.99C25.5396 7.67733 25.5933 7.32733 25.5933 6.94V0.877999H27.4763V6.94C27.4763 7.542 27.3783 8.09967 27.1823 8.613C26.991 9.12167 26.7133 9.56267 26.3493 9.936C25.9853 10.3047 25.5443 10.594 25.0263 10.804C24.5083 11.0093 23.925 11.112 23.2763 11.112C22.6276 11.112 22.0443 11.0093 21.5263 10.804C21.0083 10.594 20.5673 10.3047 20.2033 9.936C19.844 9.56267 19.5663 9.12167 19.3703 8.613C19.179 8.09967 19.0833 7.542 19.0833 6.94V0.877999H20.9663V6.933C20.9663 7.32033 21.0176 7.67033 21.1203 7.983C21.2276 8.29567 21.3793 8.564 21.5753 8.788C21.7713 9.00733 22.0116 9.17767 22.2963 9.299C22.5856 9.42033 22.9123 9.481 23.2763 9.481ZM45.1309 0.877999V2.425H42.0859V11H40.2029V2.425H37.1439V0.877999H45.1309ZM64.0962 5.939C64.0962 6.681 63.9725 7.36933 63.7252 8.004C63.4778 8.634 63.1302 9.18 62.6822 9.642C62.2342 10.104 61.6952 10.4657 61.0652 10.727C60.4352 10.9837 59.7375 11.112 58.9722 11.112C58.2068 11.112 57.5068 10.9837 56.8722 10.727C56.2422 10.4657 55.7008 10.104 55.2482 9.642C54.8002 9.18 54.4525 8.634 54.2052 8.004C53.9578 7.36933 53.8342 6.681 53.8342 5.939C53.8342 5.197 53.9578 4.511 54.2052 3.881C54.4525 3.24633 54.8002 2.698 55.2482 2.236C55.7008 1.774 56.2422 1.41467 56.8722 1.158C57.5068 0.896667 58.2068 0.766 58.9722 0.766C59.7375 0.766 60.4352 0.896667 61.0652 1.158C61.6952 1.41933 62.2342 1.781 62.6822 2.243C63.1302 2.70033 63.4778 3.24633 63.7252 3.881C63.9725 4.511 64.0962 5.197 64.0962 5.939ZM62.1642 5.939C62.1642 5.38367 62.0895 4.88667 61.9402 4.448C61.7955 4.00467 61.5855 3.629 61.3102 3.321C61.0348 3.013 60.6988 2.77733 60.3022 2.614C59.9102 2.45067 59.4668 2.369 58.9722 2.369C58.4775 2.369 58.0318 2.45067 57.6352 2.614C57.2385 2.77733 56.9002 3.013 56.6202 3.321C56.3448 3.629 56.1325 4.00467 55.9832 4.448C55.8338 4.88667 55.7592 5.38367 55.7592 5.939C55.7592 6.49433 55.8338 6.99367 55.9832 7.437C56.1325 7.87567 56.3448 8.249 56.6202 8.557C56.9002 8.86033 57.2385 9.09367 57.6352 9.257C58.0318 9.42033 58.4775 9.502 58.9722 9.502C59.4668 9.502 59.9102 9.42033 60.3022 9.257C60.6988 9.09367 61.0348 8.86033 61.3102 8.557C61.5855 8.249 61.7955 7.87567 61.9402 7.437C62.0895 6.99367 62.1642 6.49433 62.1642 5.939ZM82.7344 11H80.8374V6.576H76.0914V11H74.1944V0.877999H76.0914V5.232H80.8374V0.877999H82.7344V11ZM97.4604 9.481C97.8244 9.481 98.1488 9.42033 98.4334 9.299C98.7228 9.17767 98.9654 9.00733 99.1614 8.788C99.3621 8.56867 99.5138 8.30267 99.6164 7.99C99.7238 7.67733 99.7774 7.32733 99.7774 6.94V0.877999H101.66V6.94C101.66 7.542 101.562 8.09967 101.366 8.613C101.175 9.12167 100.897 9.56267 100.533 9.936C100.169 10.3047 99.7284 10.594 99.2104 10.804C98.6924 11.0093 98.1091 11.112 97.4604 11.112C96.8118 11.112 96.2284 11.0093 95.7104 10.804C95.1924 10.594 94.7514 10.3047 94.3874 9.936C94.0281 9.56267 93.7504 9.12167 93.5544 8.613C93.3631 8.09967 93.2674 7.542 93.2674 6.94V0.877999H95.1504V6.933C95.1504 7.32033 95.2018 7.67033 95.3044 7.983C95.4118 8.29567 95.5634 8.564 95.7594 8.788C95.9554 9.00733 96.1958 9.17767 96.4804 9.299C96.7698 9.42033 97.0964 9.481 97.4604 9.481ZM113.169 0.877999C113.253 0.877999 113.323 0.882666 113.379 0.891999C113.435 0.896666 113.484 0.910666 113.526 0.933999C113.573 0.952666 113.617 0.983 113.659 1.025C113.701 1.06233 113.748 1.11367 113.799 1.179L119.112 7.948C119.093 7.78467 119.079 7.626 119.07 7.472C119.065 7.31333 119.063 7.16633 119.063 7.031V0.877999H120.722V11H119.749C119.6 11 119.476 10.9767 119.378 10.93C119.28 10.8833 119.184 10.7993 119.091 10.678L113.799 3.937C113.813 4.08633 113.822 4.23567 113.827 4.385C113.836 4.52967 113.841 4.66267 113.841 4.784V11H112.182V0.877999H113.169ZM138.507 0.877999V2.425H135.462V11H133.579V2.425H130.52V0.877999H138.507ZM154.694 0.877999V2.376H150.207V5.183H153.742V6.632H150.207V9.495H154.694V11H148.31V0.877999H154.694ZM166.878 7.045V11H164.995V0.877999H168.082C168.773 0.877999 169.363 0.950333 169.853 1.095C170.348 1.235 170.751 1.43333 171.064 1.69C171.381 1.94667 171.612 2.25467 171.757 2.614C171.906 2.96867 171.981 3.36067 171.981 3.79C171.981 4.13067 171.93 4.45267 171.827 4.756C171.729 5.05933 171.584 5.33467 171.393 5.582C171.206 5.82933 170.973 6.04633 170.693 6.233C170.418 6.41967 170.103 6.569 169.748 6.681C169.986 6.81633 170.191 7.01 170.364 7.262L172.898 11H171.204C171.041 11 170.901 10.9673 170.784 10.902C170.672 10.8367 170.576 10.7433 170.497 10.622L168.369 7.381C168.29 7.25967 168.201 7.17333 168.103 7.122C168.01 7.07067 167.87 7.045 167.683 7.045H166.878ZM166.878 5.694H168.054C168.409 5.694 168.717 5.64967 168.978 5.561C169.244 5.47233 169.461 5.351 169.629 5.197C169.802 5.03833 169.93 4.85167 170.014 4.637C170.098 4.42233 170.14 4.18667 170.14 3.93C170.14 3.41667 169.97 3.02233 169.629 2.747C169.293 2.47167 168.777 2.334 168.082 2.334H166.878V5.694Z" fill="white"/>
<path d="M3.708 45L1.593 39.366H1.557C1.575 39.552 1.59 39.804 1.602 40.122C1.614 40.434 1.62 40.761 1.62 41.103V45H0.873V38.574H2.07L4.05 43.839H4.086L6.102 38.574H7.29V45H6.489V41.049C6.489 40.737 6.495 40.428 6.507 40.122C6.525 39.816 6.54 39.567 6.552 39.375H6.516L4.374 45H3.708ZM11.198 45V38.574H12.008V41.292H12.998C13.598 41.292 14.069 41.373 14.411 41.535C14.759 41.697 15.005 41.916 15.149 42.192C15.299 42.468 15.374 42.777 15.374 43.119C15.374 43.683 15.191 44.139 14.825 44.487C14.465 44.829 13.889 45 13.097 45H11.198ZM16.364 45V38.574H17.174V45H16.364ZM12.008 44.316H13.025C13.541 44.316 13.922 44.217 14.168 44.019C14.414 43.821 14.537 43.521 14.537 43.119C14.537 42.705 14.402 42.417 14.132 42.255C13.868 42.087 13.46 42.003 12.908 42.003H12.008V44.316ZM26.7029 41.697L24.2099 38.574H25.1099L27.5669 41.688V38.574H28.3409V41.688L30.7979 38.574H31.6979L29.2049 41.688L31.7789 45H30.8519L28.3409 41.742V45H27.5669V41.742L25.0469 45H24.1199L26.7029 41.697ZM34.8345 38.574H35.5905V42.102C35.5905 42.3 35.5875 42.522 35.5815 42.768C35.5755 43.014 35.5665 43.239 35.5545 43.443C35.5485 43.647 35.5395 43.797 35.5275 43.893H35.5635L39.1005 38.574H40.0005V45H39.2445V41.508C39.2445 41.286 39.2475 41.049 39.2535 40.797C39.2655 40.545 39.2775 40.314 39.2895 40.104C39.3015 39.894 39.3105 39.744 39.3165 39.654H39.2805L35.7345 45H34.8345V38.574ZM43.8937 38.574H45.7297C46.5337 38.574 47.1397 38.694 47.5477 38.934C47.9617 39.168 48.1687 39.579 48.1687 40.167C48.1687 40.545 48.0637 40.86 47.8537 41.112C47.6437 41.358 47.3407 41.517 46.9447 41.589V41.634C47.2147 41.676 47.4577 41.754 47.6737 41.868C47.8957 41.982 48.0697 42.144 48.1957 42.354C48.3217 42.564 48.3847 42.837 48.3847 43.173C48.3847 43.755 48.1837 44.205 47.7817 44.523C47.3857 44.841 46.8427 45 46.1527 45H43.8937V38.574ZM44.7037 41.31H45.8917C46.4437 41.31 46.8217 41.223 47.0257 41.049C47.2297 40.869 47.3317 40.605 47.3317 40.257C47.3317 39.903 47.2057 39.651 46.9537 39.501C46.7077 39.345 46.3117 39.267 45.7657 39.267H44.7037V41.31ZM44.7037 41.985V44.316H45.9997C46.5697 44.316 46.9657 44.205 47.1877 43.983C47.4097 43.761 47.5207 43.47 47.5207 43.11C47.5207 42.774 47.4037 42.504 47.1697 42.3C46.9417 42.09 46.5307 41.985 45.9367 41.985H44.7037ZM55.4982 45H51.9072V38.574H55.4982V39.285H52.7172V41.292H55.3362V41.994H52.7172V44.289H55.4982V45ZM61.9032 45L59.7882 39.366H59.7522C59.7702 39.552 59.7852 39.804 59.7972 40.122C59.8092 40.434 59.8152 40.761 59.8152 41.103V45H59.0682V38.574H60.2652L62.2452 43.839H62.2812L64.2972 38.574H65.4852V45H64.6842V41.049C64.6842 40.737 64.6902 40.428 64.7022 40.122C64.7202 39.816 64.7352 39.567 64.7472 39.375H64.7112L62.5692 45H61.9032ZM77.3255 45L76.5515 43.011H74.0045L73.2395 45H72.4205L74.9315 38.547H75.6605L78.1625 45H77.3255ZM76.3085 42.291L75.5885 40.347C75.5705 40.299 75.5405 40.212 75.4985 40.086C75.4565 39.96 75.4145 39.831 75.3725 39.699C75.3365 39.561 75.3065 39.456 75.2825 39.384C75.2405 39.57 75.1925 39.753 75.1385 39.933C75.0845 40.107 75.0395 40.245 75.0035 40.347L74.2745 42.291H76.3085ZM81.2015 38.574H83.0375C83.8415 38.574 84.4475 38.694 84.8555 38.934C85.2695 39.168 85.4765 39.579 85.4765 40.167C85.4765 40.545 85.3715 40.86 85.1615 41.112C84.9515 41.358 84.6485 41.517 84.2525 41.589V41.634C84.5225 41.676 84.7655 41.754 84.9815 41.868C85.2035 41.982 85.3775 42.144 85.5035 42.354C85.6295 42.564 85.6925 42.837 85.6925 43.173C85.6925 43.755 85.4915 44.205 85.0895 44.523C84.6935 44.841 84.1505 45 83.4605 45H81.2015V38.574ZM82.0115 41.31H83.1995C83.7515 41.31 84.1295 41.223 84.3335 41.049C84.5375 40.869 84.6395 40.605 84.6395 40.257C84.6395 39.903 84.5135 39.651 84.2615 39.501C84.0155 39.345 83.6195 39.267 83.0735 39.267H82.0115V41.31ZM82.0115 41.985V44.316H83.3075C83.8775 44.316 84.2735 44.205 84.4955 43.983C84.7175 43.761 84.8285 43.47 84.8285 43.11C84.8285 42.774 84.7115 42.504 84.4775 42.3C84.2495 42.09 83.8385 41.985 83.2445 41.985H82.0115ZM91.249 45H90.439V39.285H88.432V38.574H93.247V39.285H91.249V45ZM101.807 41.778C101.807 42.444 101.693 43.026 101.465 43.524C101.243 44.016 100.913 44.4 100.475 44.676C100.037 44.952 99.4942 45.09 98.8462 45.09C98.1802 45.09 97.6252 44.952 97.1812 44.676C96.7432 44.4 96.4162 44.013 96.2002 43.515C95.9842 43.017 95.8762 42.435 95.8762 41.769C95.8762 41.109 95.9842 40.533 96.2002 40.041C96.4162 39.549 96.7432 39.165 97.1812 38.889C97.6252 38.613 98.1832 38.475 98.8552 38.475C99.4972 38.475 100.037 38.613 100.475 38.889C100.913 39.159 101.243 39.543 101.465 40.041C101.693 40.533 101.807 41.112 101.807 41.778ZM96.7312 41.778C96.7312 42.588 96.9022 43.227 97.2442 43.695C97.5862 44.157 98.1202 44.388 98.8462 44.388C99.5782 44.388 100.112 44.157 100.448 43.695C100.784 43.227 100.952 42.588 100.952 41.778C100.952 40.968 100.784 40.335 100.448 39.879C100.112 39.417 99.5812 39.186 98.8552 39.186C98.1292 39.186 97.5922 39.417 97.2442 39.879C96.9022 40.335 96.7312 40.968 96.7312 41.778ZM108.226 45L106.111 39.366H106.075C106.093 39.552 106.108 39.804 106.12 40.122C106.132 40.434 106.138 40.761 106.138 41.103V45H105.391V38.574H106.588L108.568 43.839H108.604L110.62 38.574H111.808V45H111.007V41.049C111.007 40.737 111.013 40.428 111.025 40.122C111.043 39.816 111.058 39.567 111.07 39.375H111.034L108.892 45H108.226ZM121.324 41.778C121.324 42.444 121.21 43.026 120.982 43.524C120.76 44.016 120.43 44.4 119.992 44.676C119.554 44.952 119.011 45.09 118.363 45.09C117.697 45.09 117.142 44.952 116.698 44.676C116.26 44.4 115.933 44.013 115.717 43.515C115.501 43.017 115.393 42.435 115.393 41.769C115.393 41.109 115.501 40.533 115.717 40.041C115.933 39.549 116.26 39.165 116.698 38.889C117.142 38.613 117.7 38.475 118.372 38.475C119.014 38.475 119.554 38.613 119.992 38.889C120.43 39.159 120.76 39.543 120.982 40.041C121.21 40.533 121.324 41.112 121.324 41.778ZM116.248 41.778C116.248 42.588 116.419 43.227 116.761 43.695C117.103 44.157 117.637 44.388 118.363 44.388C119.095 44.388 119.629 44.157 119.965 43.695C120.301 43.227 120.469 42.588 120.469 41.778C120.469 40.968 120.301 40.335 119.965 39.879C119.629 39.417 119.098 39.186 118.372 39.186C117.646 39.186 117.109 39.417 116.761 39.879C116.419 40.335 116.248 40.968 116.248 41.778ZM124.908 45V38.574H128.724V39.285H125.718V41.292H126.672C127.314 41.292 127.812 41.373 128.166 41.535C128.52 41.691 128.766 41.907 128.904 42.183C129.042 42.453 129.111 42.765 129.111 43.119C129.111 43.707 128.934 44.169 128.58 44.505C128.226 44.835 127.629 45 126.789 45H124.908ZM125.718 44.307H126.708C127.284 44.307 127.689 44.211 127.923 44.019C128.157 43.821 128.274 43.521 128.274 43.119C128.274 42.705 128.145 42.414 127.887 42.246C127.629 42.078 127.191 41.994 126.573 41.994H125.718V44.307ZM132.614 38.574H133.37V42.102C133.37 42.3 133.367 42.522 133.361 42.768C133.355 43.014 133.346 43.239 133.334 43.443C133.328 43.647 133.319 43.797 133.307 43.893H133.343L136.88 38.574H137.78V45H137.024V41.508C137.024 41.286 137.027 41.049 137.033 40.797C137.045 40.545 137.057 40.314 137.069 40.104C137.081 39.894 137.09 39.744 137.096 39.654H137.06L133.514 45H132.614V38.574ZM146.299 45H145.489V39.285H143.455C143.401 39.729 143.341 40.197 143.275 40.689C143.209 41.175 143.143 41.64 143.077 42.084C143.011 42.528 142.945 42.906 142.879 43.218C142.801 43.62 142.705 43.962 142.591 44.244C142.477 44.526 142.324 44.739 142.132 44.883C141.946 45.027 141.7 45.099 141.394 45.099C141.292 45.099 141.187 45.087 141.079 45.063C140.977 45.045 140.887 45.021 140.809 44.991V44.316C140.875 44.346 140.95 44.373 141.034 44.397C141.118 44.415 141.208 44.424 141.304 44.424C141.484 44.424 141.625 44.352 141.727 44.208C141.835 44.058 141.919 43.875 141.979 43.659C142.039 43.437 142.09 43.218 142.132 43.002C142.18 42.774 142.237 42.441 142.303 42.003C142.375 41.559 142.45 41.043 142.528 40.455C142.612 39.867 142.696 39.24 142.78 38.574H146.299V45ZM152.14 42.336L150.475 45H149.53L151.33 42.192C151.102 42.114 150.886 42.006 150.682 41.868C150.484 41.73 150.322 41.541 150.196 41.301C150.07 41.061 150.007 40.752 150.007 40.374C150.007 39.792 150.208 39.348 150.61 39.042C151.012 38.73 151.612 38.574 152.41 38.574H154.21V45H153.4V42.336H152.14ZM153.4 39.267H152.428C151.918 39.267 151.525 39.357 151.249 39.537C150.979 39.711 150.844 40.002 150.844 40.41C150.844 40.806 150.976 41.112 151.24 41.328C151.504 41.544 151.912 41.652 152.464 41.652H153.4V39.267ZM160.948 45L158.833 39.366H158.797C158.815 39.552 158.83 39.804 158.842 40.122C158.854 40.434 158.86 40.761 158.86 41.103V45H158.113V38.574H159.31L161.29 43.839H161.326L163.342 38.574H164.53V45H163.729V41.049C163.729 40.737 163.735 40.428 163.747 40.122C163.765 39.816 163.78 39.567 163.792 39.375H163.756L161.614 45H160.948ZM168.447 38.574H169.203V42.102C169.203 42.3 169.2 42.522 169.194 42.768C169.188 43.014 169.179 43.239 169.167 43.443C169.161 43.647 169.152 43.797 169.14 43.893H169.176L172.713 38.574H173.613V45H172.857V41.508C172.857 41.286 172.86 41.049 172.866 40.797C172.878 40.545 172.89 40.314 172.902 40.104C172.914 39.894 172.923 39.744 172.929 39.654H172.893L169.347 45H168.447V38.574Z" fill="white"/>
<line x1="-1.31134e-08" y1="22.85" x2="174" y2="22.85" stroke="white" stroke-width="0.3"/>
</svg>
