<svg xmlns="http://www.w3.org/2000/svg" version="1.0" width="59.000000pt" height="59.000000pt" viewBox="0 0 59.000000 59.000000" preserveAspectRatio="xMidYMid meet">
<g transform="translate(0.000000,59.000000) scale(0.100000,-0.100000)" fill="#000000" stroke="none">
<path d="M70 522 c0 -57 -1 -58 -33 -67 l-32 -10 0 -165 0 -165 103 -3 c82 -2 102 -6 102 -17 0 -8 -9 -15 -19 -15 -22 0 -51 -35 -51 -62 0 -16 13 -18 149 -18 98 0 152 4 157 11 9 16 -29 63 -55 67 -11 2 -21 10 -21 18 0 11 20 14 98 14 63 0 102 4 110 12 8 8 12 58 12 159 0 160 -6 179 -56 179 -23 0 -24 3 -24 60 l0 60 -220 0 -220 0 0 -58z m410 13 l0 -25 -190 0 -190 0 0 25 0 25 190 0 190 0 0 -25z m0 -205 l0 -150 -190 0 -190 0 0 150 0 150 190 0 190 0 0 -150z m-410 -40 l0 -140 220 0 220 0 0 140 0 140 25 0 25 0 0 -145 0 -145 -265 0 -265 0 0 145 c0 138 1 145 20 145 19 0 20 -7 20 -140z"/>
<path d="M143 446 c-23 -20 -28 -32 -28 -71 0 -39 5 -51 28 -71 15 -13 36 -24 45 -24 9 -1 26 -15 37 -32 24 -38 67 -52 144 -46 70 6 101 38 101 103 0 36 -5 47 -31 69 -17 14 -36 26 -42 26 -7 0 -25 16 -40 35 -28 35 -29 35 -107 35 -69 0 -82 -3 -107 -24z"/>
</g>
</svg>
