<svg width="50" height="50">
<path style="fill:#ffffff; stroke:none;" d="M14 42L14 43C7.98894 44.4318 3.01776 43.7388 0 50L50 50C47.006 43.9312 41.8934 44.407 36 43C39.5507 41.9505 45.6801 43.1131 48.3966 40.3966C53.2279 35.5653 50.003 16.5844 50 10C49.9988 7.38321 50.7495 2.89132 48.3966 1.02778C45.7786 -1.04573 40.1215 0 37 0C26.893 0 12.8306 -2.55667 3.14815 0.317902C-2.16505 1.89532 0 13.7118 0 18C0 22.8053 -2.44856 37.6118 1.6034 40.821C4.49166 43.1085 10.5391 42 14 42z"/>
<path style="fill:#ffffff; stroke:none;" d="M3 3L3 35L47 35L47 3L3 3z"/>
<path style="fill:#805be9; stroke:none;" d="M6 6L6 23L7 23L7 8L17 8L17 11L25 11L26 25L6 25L6 33L44 33L44 28L39 25L38 25L38 28L28 28L28 22L32 25L33 25L33 22L44 22L44 21L39 21L39 19L44 19L44 18L34 18L34 15L44 15L44 6L6 6z"/>
<path style="fill:#ffffff; stroke:none;" d="M30 9L33 14L39 14L42 9L30 9z"/>
<path style="fill:#805be9; stroke:none;" d="M14 15L15 16L14 15z"/>
<path style="fill:#ffffff; stroke:none;" d="M28 15L28 18L33 18L33 15L28 15M28 19L28 21L38 21L38 19L28 19M9 26L9 32L23 32L23 26L9 26z"/>
<path style="fill:#805be9; stroke:none;" d="M11 29L11 30L20 30L11 29z"/>
</svg>
