<svg width="50" height="50">
<path style="fill:#ffd916; stroke:none;" d="M18 0.52932C-13.8536 7.88031 -0.161308 56.8927 32 49.4707C63.8536 42.1197 50.1613 -6.89268 18 0.52932z"/>
<path style="fill:#a3d55e; stroke:none;" d="M27 5L27 6L33 6L27 5z"/>
<path style="fill:#21d0c3; stroke:none;" d="M41 26C40.0761 21.3287 43.2434 16.4637 40.9715 12.0154C30.5693 -8.3509 4.6333 23.2789 28 25.8912C32.2549 26.3669 36.7208 26 41 26z"/>
<path style="fill:#e3f9f8; stroke:none;" d="M23 13L23 14L36 14L23 13z"/>
<path style="fill:#b1eeea; stroke:none;" d="M23 16L23 17L36 17L23 16z"/>
<path style="fill:#60ddd4; stroke:none;" d="M23 18L23 20L31 20L31 18L23 18z"/>
<path style="fill:#ff5b62; stroke:none;" d="M12 38L8 39L8 40C19.7988 39.9101 32.861 41.3592 33 26C26.6848 27.1752 22.6006 23.9912 19 19C9.12586 22.162 9.30641 29.3676 12 38z"/>
<path style="fill:#75d382; stroke:none;" d="M37 26L37 27L43 26L37 26z"/>
<path style="fill:#988381; stroke:none;" d="M27 26L27 27L32 27L27 26z"/>
<path style="fill:#ff9e3a; stroke:none;" d="M9 27L9 32L10 32L9 27z"/>
<path style="fill:#ffdcde; stroke:none;" d="M15 28L15 29L28 29L15 28z"/>
<path style="fill:#ffbdc0; stroke:none;" d="M15 31L15 32L28 32L15 31z"/>
<path style="fill:#ffb7b9; stroke:none;" d="M15 33L15 34L22 34L15 33z"/>
</svg>
