<svg width="118" height="115" viewBox="0 0 118 115" fill="none" xmlns="http://www.w3.org/2000/svg">
<line x1="19.8619" y1="19.152" x2="12.8992" y2="75.1842" stroke="#FFD916"/>
<line x1="60.4062" y1="43.4249" x2="52.0004" y2="101.313" stroke="#FFD916"/>
<line x1="105.067" y1="29.694" x2="98.376" y2="85.2837" stroke="#FFD916"/>
<line x1="65.9907" y1="8.46929" x2="59.887" y2="60.1482" stroke="#FFD916"/>
<line x1="98.3992" y1="85.6109" x2="51.6683" y2="101.714" stroke="#FFD916"/>
<line x1="51.6659" y1="101.927" x2="12.3922" y2="75.0927" stroke="#FFD916"/>
<line x1="59.4635" y1="60.2071" x2="14.0245" y2="75.3998" stroke="#FFD916"/>
<line y1="-0.5" x2="46.2363" y2="-0.5" transform="matrix(-0.834291 -0.551324 0.551326 -0.83429 98.2363 85.1382)" stroke="#FFD916"/>
<line x1="60.0136" y1="43.6985" x2="19.1109" y2="19.5201" stroke="#FFD916"/>
<line x1="104.327" y1="30.0707" x2="65.094" y2="8.13497" stroke="#FFD916"/>
<line y1="-0.5" x2="46.7192" y2="-0.5" transform="matrix(-0.95591 0.293659 -0.293656 -0.955911 104.571 29.6343)" stroke="#FFD916"/>
<line x1="65.458" y1="8.18355" x2="19.4872" y2="19.5804" stroke="#FFD916"/>
<line x1="44.5578" y1="43.8746" x2="86.3311" y2="33.8668" stroke="#491AAD"/>
<line x1="44.7178" y1="44.1476" x2="66.9541" y2="73.9306" stroke="#491AAD"/>
<line x1="44.7178" y1="44.1476" x2="66.9541" y2="73.9306" stroke="#491AAD"/>
<line x1="86.4034" y1="33.7799" x2="109.61" y2="64.4629" stroke="#491AAD"/>
<line x1="86.4034" y1="33.7799" x2="109.61" y2="64.4629" stroke="#491AAD"/>
<line x1="109.568" y1="64.5371" x2="100.615" y2="101.037" stroke="#491AAD"/>
<line x1="109.568" y1="64.5371" x2="100.615" y2="101.037" stroke="#491AAD"/>
<line x1="100.603" y1="101.319" x2="59.1866" y2="111.241" stroke="#491AAD"/>
<line x1="100.603" y1="101.319" x2="59.1866" y2="111.241" stroke="#491AAD"/>
<line x1="59.1113" y1="111.324" x2="36.2613" y2="80.556" stroke="#491AAD"/>
<line x1="59.1113" y1="111.324" x2="36.2613" y2="80.556" stroke="#491AAD"/>
<line x1="59.0225" y1="110.928" x2="66.4201" y2="74.0456" stroke="#491AAD"/>
<line x1="59.0225" y1="110.928" x2="66.4201" y2="74.0456" stroke="#491AAD"/>
<line x1="36.2596" y1="80.508" x2="44.1854" y2="44.254" stroke="#491AAD"/>
<line x1="36.2596" y1="80.508" x2="44.1854" y2="44.254" stroke="#491AAD"/>
<line x1="36.2596" y1="80.508" x2="44.1854" y2="44.254" stroke="#491AAD"/>
<line x1="36.2596" y1="80.508" x2="44.1854" y2="44.254" stroke="#491AAD"/>
<line x1="78.1185" y1="70.8576" x2="86.0443" y2="34.6037" stroke="#491AAD"/>
<line x1="66.4452" y1="73.7414" x2="109.104" y2="64.2766" stroke="#491AAD"/>
<line x1="66.4452" y1="73.7414" x2="109.104" y2="64.2766" stroke="#491AAD"/>
</svg>
