<svg xmlns="http://www.w3.org/2000/svg" id="Layer_1" data-name="Layer 1" viewBox="0 0 744.51 283.91"><defs/><defs/><path fill="#edc51d" d="M136.3 87.92h52.46v104.92H136.3z"/><path fill="#ffd916" fill-rule="evenodd" d="M214.8 165.13V77.05l-15.18-15.17H136.3v26h52.46v104.96H136.3v26h63.32l15.16-15.16v-13.83zm0 0"/><path d="M93.94 88.75a13.36 13.36 0 10-18.89 0 13.35 13.35 0 0018.89 0zm0 0M80.36 153.73A13.35 13.35 0 1067 140.37a13.37 13.37 0 0013.35 13.36zm0 0M75.05 210.88a13.35 13.35 0 100-18.87 13.35 13.35 0 000 18.87zm0 0" class="cls-3"/><path fill="#805be9" fill-rule="evenodd" d="M93.94 192a13.35 13.35 0 11-18.89 0 13.33 13.33 0 0118.89 0zm-.22-51.64A13.36 13.36 0 1180.36 127a13.37 13.37 0 0113.36 13.34zm42.58-33V37.85a26.44 26.44 0 00-52.64-3.59 42.07 42.07 0 00-36.12 62.62 46.88 46.88 0 000 87 42.07 42.07 0 0036.12 62.61 26.45 26.45 0 0026.11 22.85h.23a26.45 26.45 0 0026.3-26.44zm-42.36-37.5a13.36 13.36 0 11-18.89 0 13.35 13.35 0 0118.89 0zm0 0"/><path d="M239.88 120.87a5.24 5.24 0 100-10.48H220V96.11h19.86a5.24 5.24 0 100-10.48H220v-8.58a5.23 5.23 0 00-1.53-3.7l-15.14-15.17a5.22 5.22 0 00-3.71-1.54H191V36.8a5.24 5.24 0 10-10.48 0v19.84h-14.24V36.8a5.24 5.24 0 00-10.48 0v19.84h-14.26V37.85a31.69 31.69 0 00-62.18-8.59 47.3 47.3 0 00-42.43 47 47.53 47.53 0 003.58 18.07 52.13 52.13 0 000 92 47.31 47.31 0 0038.85 65.1 31.68 31.68 0 0062.18-8.59V224.1h14.26V244a5.25 5.25 0 0010.49 0v-19.9h14.27V244a5.24 5.24 0 1010.44 0v-19.9h8.58a5.25 5.25 0 003.71-1.53l15.16-15.16a5.25 5.25 0 001.55-3.71v-8.59h19.86a5.24 5.24 0 000-10.48H220v-14.26h19.86a5.25 5.25 0 000-10.49H220v-14.27h19.86a5.24 5.24 0 000-10.48H220v-14.26zm-130 143.23a21.29 21.29 0 01-19.6-13.1 46.64 46.64 0 0025-13.23 5.24 5.24 0 10-7.49-7.33 36.09 36.09 0 01-24.19 10.8 36.81 36.81 0 01-31.49-54.79A5.29 5.29 0 0049.5 179a41.64 41.64 0 010-77.28 5.3 5.3 0 002.63-7.43A36.81 36.81 0 0183.6 39.51a35.91 35.91 0 0124.17 10.77 5.24 5.24 0 007.51-7.28 46.35 46.35 0 00-25-13.24 21.2 21.2 0 0140.78 8.13v64.28h-16.32l-13.91-13.95a18.63 18.63 0 10-16.33 9.67 18.72 18.72 0 008.91-2.26l15.45 15.44a5.26 5.26 0 003.7 1.54h18.5v22.52H98.2a18.6 18.6 0 100 10.48h32.86v22.52h-18.87a5.16 5.16 0 00-3.33 1.52L93.4 185.13a18.59 18.59 0 00-27.5 16.33 18.6 18.6 0 1034.93-8.92l13.91-13.92h16.31v64.28a21.21 21.21 0 01-21.19 21.2zM92.61 79.31a8.11 8.11 0 11-2.37-5.74 8.06 8.06 0 012.37 5.74zm-4.13 61.06a8.12 8.12 0 11-8.12-8.1 8.13 8.13 0 018.12 8.1zm4.13 61.09a8 8 0 01-2.37 5.71 8.11 8.11 0 110-11.46 8 8 0 012.37 5.74zm116.93.07l-12.09 12.09h-55.91v-15.54h47.22a5.24 5.24 0 005.24-5.24V163.9a5.24 5.24 0 10-10.48 0v23.7h-42V93.16h42v23.64a5.24 5.24 0 1010.48 0V87.92a5.25 5.25 0 00-5.24-5.25h-47.22V67.12h55.91l12.09 12.1zm0 0"/><path d="M188.76 135.11a5.25 5.25 0 00-5.24 5.25 5.24 5.24 0 105.24-5.26zm0 0"/><text fill="#805be9" font-family="Oswald-Bold,Oswald" font-size="120" font-weight="700" letter-spacing="0" transform="translate(287.15 188.1)"><tspan>We</tspan><tspan x="139.8" y="0" fill="#fff">Brains</tspan></text></svg>
