<svg id="Layer_1" data-name="Layer 1" xmlns="http://www.w3.org/2000/svg" viewBox="0 0 687.06 334.15"><defs><style>.cls-1{fill:#fff;}.cls-2,.cls-3{fill:#f7d545;}.cls-3{font-size:50px;font-family:RobotoCondensed-Bold, Roboto Condensed;font-weight:700;}.cls-4{letter-spacing:-0.09em;}.cls-5{letter-spacing:-0.01em;}</style></defs><title>logo good page 2.svg желт</title><path class="cls-1" d="M209.52,147v40.52h-152a9.73,9.73,0,0,0-10.13,10.13v60.79a9.71,9.71,0,0,0,10.13,10.13H158.87A9.71,9.71,0,0,0,169,258.45V207.79h40.52v50.66a47.88,47.88,0,0,1-4.05,19.66,52.44,52.44,0,0,1-26.95,26.95,47.86,47.86,0,0,1-19.65,4.05H57.55a47.8,47.8,0,0,1-19.65-4.05A52.44,52.44,0,0,1,11,278.11a47.72,47.72,0,0,1-4.06-19.66V197.66A47.71,47.71,0,0,1,11,178a52.44,52.44,0,0,1,27-26.95A47.8,47.8,0,0,1,57.55,147Z"/><path class="cls-1" d="M266.21,309.11H225.68V197.66A47.71,47.71,0,0,1,229.74,178a52.44,52.44,0,0,1,26.95-26.95A47.8,47.8,0,0,1,276.34,147H377.66a47.86,47.86,0,0,1,19.65,4.05A52.44,52.44,0,0,1,424.26,178a47.86,47.86,0,0,1,4.05,19.65v20.27a47.83,47.83,0,0,1-4.05,19.65,52.44,52.44,0,0,1-26.95,26.95,47.7,47.7,0,0,1-19.65,4.05H286.47V228.06h91.19a9.73,9.73,0,0,0,10.13-10.13V197.66a9.73,9.73,0,0,0-10.13-10.13H276.34a9.73,9.73,0,0,0-10.13,10.13Z"/><rect class="cls-2" x="341.41" y="57.43" width="156.51" height="18.51" transform="translate(75.7 316.2) rotate(-44.99)"/><rect class="cls-2" x="438.72" y="154.74" width="156.51" height="18.52" transform="translate(35.48 413.65) rotate(-45.01)"/><rect class="cls-2" x="419.85" y="93.66" width="122.12" height="18.51" transform="translate(68.03 370.11) rotate(-44.99)"/><rect class="cls-2" x="395.18" y="68.98" width="122.12" height="18.52" transform="translate(78.27 345.47) rotate(-44.99)"/><rect class="cls-2" x="443.37" y="117.17" width="122.12" height="18.51" transform="translate(58.31 393.65) rotate(-44.99)"/><text class="cls-3" transform="translate(286.88 326.11)">GOODPAGE.STUDIO</text><rect class="cls-1" x="139.99" y="207.37" width="69.53" height="32.39"/></svg>
