<svg id="Layer_1" data-name="Layer 1" xmlns="http://www.w3.org/2000/svg" viewBox="0 0 744.51 283.91"><defs><style>.cls-1{fill:#edc51d;}.cls-2{fill:#ffd916;}.cls-2,.cls-3,.cls-4{fill-rule:evenodd;}.cls-3{fill:#f4de7f;}.cls-4,.cls-5{fill:#805be9;}.cls-5{font-size:120px;font-family:Oswald-Bold, Oswald;font-weight:700;letter-spacing:0em;}.cls-6,.cls-9{letter-spacing:0em;}.cls-7{letter-spacing:0em;}.cls-7,.cls-8,.cls-9{fill:#000;}.cls-8{letter-spacing:0em;}</style></defs><title>logo we brains</title><path d="M625.07,103.84a8.32,8.32,0,0,0-.84-3.66l-5.47-11.57A4.08,4.08,0,0,0,615,86.26h0a4.08,4.08,0,0,0-3.71,2.34l-5.48,11.56a8.3,8.3,0,0,0-.87,3.69v74.53h0v.12a10,10,0,0,0,9.94,10h.21a10,10,0,0,0,9.94-10v-.07h0V103.84ZM615,134.6a2,2,0,0,0-2,2v39.79h-4V106.53h4v14.08a2,2,0,1,0,4,0V106.53h4.1v69.86H617V136.6A2,2,0,0,0,615,134.6Zm-5.55-32.67a.05.05,0,0,0,0,0l1.63-3.42H619l1.63,3.44v0a3.75,3.75,0,0,1,.24.6H609.19Q609.29,102.23,609.43,101.93ZM615,90.25c.07,0,.08,0,.1.07l2,4.15H613l2-4.15S615,90.25,615,90.25Zm.09,94.25h-.21a6,6,0,0,1-5.61-4.11h11.45A6,6,0,0,1,615.13,184.5Z"/><rect class="cls-1" x="136.3" y="87.92" width="52.46" height="104.92"/><path class="cls-2" d="M214.8,165.13V90.87l0-13.82L199.62,61.88H136.3v26h52.46V192.84H136.3v26h63.32l15.16-15.16,0-13.83Zm0,0"/><path class="cls-3" d="M93.94,88.75a13.36,13.36,0,1,0-18.89,0,13.35,13.35,0,0,0,18.89,0Zm0,0"/><path class="cls-3" d="M80.36,153.73A13.35,13.35,0,1,0,67,140.37a13.37,13.37,0,0,0,13.35,13.36Zm0,0"/><path class="cls-3" d="M75.05,210.88a13.35,13.35,0,1,0,0-18.87,13.35,13.35,0,0,0,0,18.87Zm0,0"/><path class="cls-4" d="M93.94,192a13.35,13.35,0,1,1-18.89,0,13.33,13.33,0,0,1,18.89,0Zm-.22-51.64A13.36,13.36,0,1,1,80.36,127a13.37,13.37,0,0,1,13.36,13.34Zm42.58-33V37.85a26.44,26.44,0,0,0-52.64-3.59A42.07,42.07,0,0,0,47.54,96.88a46.88,46.88,0,0,0,0,87,42.07,42.07,0,0,0,36.12,62.61,26.45,26.45,0,0,0,26.11,22.85H110A26.45,26.45,0,0,0,136.3,242.9ZM93.94,69.86a13.36,13.36,0,1,1-18.89,0,13.35,13.35,0,0,1,18.89,0Zm0,0"/><path d="M239.88,120.87a5.24,5.24,0,1,0,0-10.48H220V96.11h19.86a5.24,5.24,0,1,0,0-10.48H220V77.05a5.23,5.23,0,0,0-1.53-3.7L203.33,58.18a5.22,5.22,0,0,0-3.71-1.54H191V36.8a5.24,5.24,0,1,0-10.48,0V56.64H166.28V36.8a5.24,5.24,0,0,0-10.48,0V56.64H141.54V37.85a31.69,31.69,0,0,0-62.18-8.59,47.3,47.3,0,0,0-42.43,47,47.53,47.53,0,0,0,3.58,18.07,52.13,52.13,0,0,0,0,92,47.31,47.31,0,0,0,38.85,65.1,31.68,31.68,0,0,0,62.18-8.59V224.1H155.8V244a5.25,5.25,0,0,0,10.49,0V224.1h14.27V244A5.24,5.24,0,1,0,191,244V224.1h8.58a5.25,5.25,0,0,0,3.71-1.53l15.16-15.16A5.25,5.25,0,0,0,220,203.7v-8.59h19.86a5.24,5.24,0,0,0,0-10.48H220V170.37h19.86a5.25,5.25,0,0,0,0-10.49H220V145.61h19.86a5.24,5.24,0,0,0,0-10.48H220V120.87Zm-130,143.23A21.29,21.29,0,0,1,90.28,251a46.64,46.64,0,0,0,25-13.23,5.24,5.24,0,1,0-7.49-7.33A36.09,36.09,0,0,1,83.6,241.24a36.81,36.81,0,0,1-31.49-54.79A5.29,5.29,0,0,0,49.5,179a41.64,41.64,0,0,1,0-77.28,5.3,5.3,0,0,0,2.63-7.43A36.81,36.81,0,0,1,83.6,39.51a35.91,35.91,0,0,1,24.17,10.77A5.24,5.24,0,0,0,115.28,43a46.35,46.35,0,0,0-25-13.24,21.2,21.2,0,0,1,40.78,8.13v64.28H114.74L100.83,88.22A18.63,18.63,0,1,0,84.5,97.89a18.72,18.72,0,0,0,8.91-2.26l15.45,15.44a5.26,5.26,0,0,0,3.7,1.54h18.5v22.52H98.2a18.6,18.6,0,1,0,0,10.48h32.86v22.52h-18.5l-.37,0a5.16,5.16,0,0,0-3.33,1.52L93.4,185.13a18.59,18.59,0,0,0-27.5,16.33,18.6,18.6,0,1,0,34.93-8.92l13.91-13.92h16.31V242.9a21.21,21.21,0,0,1-21.19,21.2ZM92.61,79.31a8.11,8.11,0,1,1-2.37-5.74,8.06,8.06,0,0,1,2.37,5.74Zm-4.13,61.06a8.12,8.12,0,1,1-8.12-8.1,8.13,8.13,0,0,1,8.12,8.1Zm4.13,61.09a8,8,0,0,1-2.37,5.71,8.11,8.11,0,1,1,0-11.46h0a8,8,0,0,1,2.37,5.74Zm116.93.07-12.09,12.09H141.54V198.08h47.22a5.24,5.24,0,0,0,5.24-5.24V163.9a5.24,5.24,0,1,0-10.48,0v23.7h-42V93.16h42V116.8a5.24,5.24,0,1,0,10.48,0V87.92a5.25,5.25,0,0,0-5.24-5.25H141.54V67.12h55.91l12.09,12.1Zm0,0"/><path d="M188.76,135.11a5.25,5.25,0,0,0-5.24,5.25h0a5.24,5.24,0,1,0,5.24-5.26Zm0,0"/><text class="cls-5" transform="translate(287.15 188.1)">W<tspan class="cls-6" x="83.4" y="0">e</tspan><tspan class="cls-7" x="139.8" y="0">B</tspan><tspan class="cls-8" x="210.36" y="0">r</tspan><tspan class="cls-9" x="255.96" y="0">a ns</tspan></text></svg>